HIERARCHY
ROOT Hips
{
	OFFSET 0.00000 0.00000 0.00000
	CHANNELS 6 Xposition Yposition Zposition Zrotation Yrotation Xrotation 
	JOINT RightUpLegDummy
	{
		OFFSET 0 0 0
		CHANNELS 3 Zrotation Yrotation Xrotation
		JOINT RightUpLeg
		{
			OFFSET -3.52197 -3.41223 0.04002
			CHANNELS 3 Zrotation Yrotation Xrotation
			JOINT RightLeg
			{
				OFFSET -1.06336 -17.58347 1.60435
				CHANNELS 3 Zrotation Yrotation Xrotation
				JOINT RightFoot
				{
					OFFSET -0.27018 -17.05419 -1.63900
					CHANNELS 3 Zrotation Yrotation Xrotation
					JOINT RightToes
					{
						OFFSET 0.00298 -1.73825 3.34613
						CHANNELS 3 Zrotation Yrotation Xrotation
						End Site
						{
							OFFSET 0.00480 -0.05416 3.85043
						}
					}
				}
			}
		}
	}
	JOINT SpineDummy
	{
		OFFSET 0 0 0
		CHANNELS 3 Zrotation Yrotation Xrotation
		JOINT Spine
		{
			OFFSET 0.00000 4.14613 0.00000
			CHANNELS 3 Zrotation Yrotation Xrotation
			JOINT Spine1
			{
				OFFSET 0.00000 10.93369 0.05002
				CHANNELS 3 Zrotation Yrotation Xrotation
				JOINT HEadDummy
				{
					OFFSET 0 0 0
					CHANNELS 3 Zrotation Yrotation Xrotation
					JOINT Head
					{
						OFFSET 0.00000 5.52901 0.00438
						CHANNELS 3 Zrotation Yrotation Xrotation
						End Site
						{
							OFFSET -0.11417 7.29012 0.98962
						}
					}
				}
				JOINT LeftShoulder1Dummy
				{
					OFFSET 0 0 0
					CHANNELS 3 Zrotation Yrotation Xrotation
					JOINT LeftShoulder1
					{
						OFFSET 3.53937 -0.14262 -0.08662
						CHANNELS 3 Zrotation Yrotation Xrotation
						JOINT LeftArm
						{
							OFFSET 4.04833 -0.00133 0.12681
							CHANNELS 3 Zrotation Yrotation Xrotation
							JOINT LeftForeArm
							{
								OFFSET 9.67557 0.03289 -0.56117
								CHANNELS 3 Zrotation Yrotation Xrotation
								JOINT LeftHand
								{
									OFFSET 10.17679 0.06873 0.40307
									CHANNELS 3 Zrotation Yrotation Xrotation
									End Site
									{
										OFFSET 6.59293 -0.21483 0.59213
									}
								}
							}
						}
					}
				}
				JOINT RightShoulderDummy
				{
					OFFSET 0 0 0
					CHANNELS 3 Zrotation Yrotation Xrotation
					JOINT RightShoulder
					{
						OFFSET -3.53937 -0.14262 -0.08660
						CHANNELS 3 Zrotation Yrotation Xrotation
						JOINT RightArm
						{
							OFFSET -4.04833 -0.00132 0.12683
							CHANNELS 3 Zrotation Yrotation Xrotation
							JOINT RightForeArm
							{
								OFFSET -9.67570 0.03289 -0.56114
								CHANNELS 3 Zrotation Yrotation Xrotation
								JOINT RightHand
								{
									OFFSET -10.17679 0.06867 0.40304
									CHANNELS 3 Zrotation Yrotation Xrotation
									End Site
									{
										OFFSET -6.54841 -0.21495 0.59212
									}
								}
							}
						}
					}
				}
			}
		}
	}
	JOINT LeftUpLegDummy
	{
		OFFSET 0 0 0
		CHANNELS 3 Zrotation Yrotation Xrotation
		JOINT LeftUpLeg
		{
			OFFSET 3.52197 -3.41223 0.04002
			CHANNELS 3 Zrotation Yrotation Xrotation
			JOINT LeftLeg
			{
				OFFSET 1.08359 -17.35354 1.60336
				CHANNELS 3 Zrotation Yrotation Xrotation
				JOINT LeftFoot
				{
					OFFSET 0.24986 -17.28405 -1.63802
					CHANNELS 3 Zrotation Yrotation Xrotation
					JOINT LeftToes
					{
						OFFSET -0.01575 -1.73822 3.34610
						CHANNELS 3 Zrotation Yrotation Xrotation
						End Site
						{
							OFFSET 0.03150 -0.01868 3.85031
						}
					}
				}
			}
		}
	}
}
MOTION
Frames: 11
Frame Time: 0.033333
-3.3815 40.2767 3.8109 -174.5830 -46.0735 176.8920 0.0000 0.0000 0.0000 -2.2825 -8.5770 -17.5732 0.0937 4.3132 24.4260 7.9812 0.0571 -9.5826 0.0000 0.0000 -0.0000 0.0000 0.0000 0.0000 1.8735 5.6817 0.8460 -4.3137 7.0974 14.5637 0.0000 0.0000 0.0000 3.9519 8.9621 -8.9464 0.0000 0.0000 0.0000 -17.4092 -4.4778 2.2557 5.1258 -51.8228 -50.4060 -177.7631 -85.9905 -176.5422 4.2539 -1.7925 -0.2228 0.0000 0.0000 0.0000 6.0117 3.0696 1.0427 65.3345 78.8077 15.7998 -147.9764 89.5642 -132.9375 -16.6176 7.9280 -1.7622 0.0000 0.0000 0.0000 11.8701 16.8419 -9.1544 -0.7411 -6.2140 13.3897 -2.3453 0.0387 -5.2582 0.0000 0.0000 -0.0000
-3.9930 40.2269 3.5926 -175.5290 -45.1634 177.0220 0.0000 0.0000 0.0000 0.5406 -10.4822 -17.4578 1.6338 8.6388 19.1949 11.2097 0.1426 -10.7501 0.0000 0.0000 -0.0000 0.0000 0.0000 0.0000 -0.7989 5.1791 -0.5016 -1.8264 5.8808 16.9922 0.0000 0.0000 0.0000 3.6178 10.5450 -10.6554 0.0000 0.0000 0.0000 -19.2613 -4.7540 2.4839 -1.9759 -49.4039 -44.7008 -178.4446 -84.9081 -175.3165 4.8244 -1.5594 -0.2462 0.0000 0.0000 0.0000 6.7360 3.2678 1.1221 58.3503 75.4780 11.8616 -173.5549 88.2809 -159.4170 -16.5620 7.8474 -1.7449 0.0000 0.0000 0.0000 11.2136 17.2529 -7.6683 -0.4993 -5.7925 14.1919 -1.9617 -0.0172 -6.3869 0.0000 0.0000 -0.0000
-4.5945 40.1726 3.3257 -176.6800 -44.7140 176.8600 0.0000 0.0000 0.0000 1.6752 -8.5898 -16.4569 2.3662 10.8521 16.5103 10.7760 0.1254 -10.5110 0.0000 0.0000 -0.0000 0.0000 0.0000 0.0000 -2.5037 4.5505 -1.0559 -0.4023 4.7729 19.0618 0.0000 0.0000 0.0000 3.0584 11.9543 -12.2627 0.0000 0.0000 0.0000 -20.9120 -4.9419 2.6798 -9.7537 -45.8586 -38.3965 -178.7052 -83.6896 -175.0587 6.1089 -1.2886 -0.3020 0.0000 0.0000 0.0000 7.5687 3.5479 1.2249 54.6167 71.2374 11.4394 -176.3511 87.5904 -163.1585 -16.2284 7.9829 -1.7265 0.0000 0.0000 0.0000 10.6360 17.9204 -5.7824 -0.5735 -6.2197 15.0344 -2.1209 -0.0623 -7.9969 0.0000 0.0000 -0.0000
-5.1959 40.1051 3.0390 -177.7400 -44.9142 176.4010 0.0000 0.0000 0.0000 0.9629 -1.9168 -15.2638 1.2306 8.0954 17.4533 5.7619 0.0663 -9.3160 0.0000 0.0000 -0.0000 0.0000 0.0000 0.0000 -2.5923 3.7494 -0.8393 -0.2945 3.8613 20.5074 0.0000 0.0000 0.0000 2.4426 13.1736 -13.3125 0.0000 0.0000 0.0000 -22.1211 -4.9382 2.7863 -16.9296 -41.1937 -32.4348 -178.5752 -82.4353 -176.2142 6.9602 -1.0866 -0.3346 0.0000 0.0000 0.0000 8.1862 3.6908 1.2932 54.3343 66.9129 14.0725 -176.4443 87.8677 -163.7291 -15.7185 8.2319 -1.7025 0.0000 0.0000 0.0000 10.1821 19.5010 -4.0284 -1.1834 -8.0299 16.3244 -1.1672 -0.1204 -9.4809 0.0000 0.0000 -0.0000
-5.7753 39.9294 2.7119 -178.4350 -45.9572 175.6860 0.0000 0.0000 0.0000 -0.1608 5.1490 -14.2095 -0.9436 2.9897 20.5563 0.5053 0.1193 -8.4789 0.0000 0.0000 -0.0000 0.0000 0.0000 0.0000 -1.3468 2.8618 -0.3203 -1.0562 3.1850 21.5275 0.0000 0.0000 0.0000 1.8661 13.7650 -13.6852 0.0000 0.0000 0.0000 -22.7243 -4.8193 2.8044 -21.6417 -37.0579 -28.3699 -178.5494 -81.2917 -176.9457 6.6445 -1.2312 -0.3261 0.0000 0.0000 0.0000 8.3310 3.6932 1.3042 54.7670 63.7379 16.4308 -174.9202 88.5480 -162.3929 -15.2427 8.5216 -1.6854 0.0000 0.0000 0.0000 10.1485 22.2631 -3.4485 -2.6694 -11.2752 19.5117 0.4506 -0.1582 -10.8825 0.0000 0.0000 -0.0000
-6.2880 39.7255 2.3355 -178.2110 -47.7458 174.6160 0.0000 0.0000 0.0000 -0.2741 8.1638 -13.0488 -2.6876 -0.6714 23.0242 -2.1127 0.1787 -8.6460 0.0000 0.0000 -0.0000 0.0000 0.0000 0.0000 0.6828 2.1790 -0.1234 -1.4851 2.7129 22.4230 0.0000 0.0000 0.0000 1.2382 13.2766 -13.2822 0.0000 0.0000 0.0000 -22.4685 -4.6660 2.7361 -23.0424 -35.7372 -27.0496 -178.9576 -80.4310 -175.3202 6.0913 -1.7155 -0.3210 0.0000 0.0000 0.0000 8.0035 3.5755 1.2608 53.9449 62.8328 16.2873 -173.5561 88.8065 -160.9145 -14.9571 8.7497 -1.6808 0.0000 0.0000 0.0000 11.1886 23.8029 -4.5257 -5.2012 -13.4998 24.8339 -0.0261 -0.1652 -11.4902 0.0000 0.0000 -0.0000
-6.7199 39.6023 1.9233 -176.8020 -49.7395 173.0940 0.0000 0.0000 0.0000 0.9036 7.7693 -11.9418 -3.6597 -2.3439 24.2249 -3.8529 0.1939 -9.6865 0.0000 0.0000 -0.0000 0.0000 0.0000 0.0000 3.1923 1.9701 -0.2672 -0.9964 2.5412 22.8970 0.0000 0.0000 0.0000 0.4717 11.8117 -11.9075 0.0000 0.0000 0.0000 -21.3335 -4.5015 2.5906 -21.2409 -37.7691 -28.5582 -179.4671 -80.0079 -172.7581 6.5049 -2.0782 -0.3617 0.0000 0.0000 0.0000 7.4733 3.3263 1.1824 51.5365 64.2039 13.4867 -174.7204 88.5041 -161.9481 -14.9025 8.6623 -1.6635 0.0000 0.0000 0.0000 12.9829 24.8324 -7.7836 -8.2328 -14.1564 32.2768 -2.6087 -0.0864 -9.2351 0.0000 0.0000 -0.0000
-7.1299 39.4482 1.4971 -174.8120 -51.3174 171.2390 0.0000 0.0000 0.0000 2.4975 7.4491 -11.1318 -4.5030 -3.6302 25.7384 -5.5142 0.1552 -11.5321 0.0000 0.0000 -0.0000 0.0000 0.0000 0.0000 6.0106 2.1551 -0.1111 -0.3907 2.8441 22.4045 0.0000 0.0000 0.0000 -0.3241 9.9899 -9.7195 0.0000 0.0000 0.0000 -19.7094 -4.3177 2.4034 -16.7968 -41.5050 -32.5073 -179.5563 -80.0429 -172.2711 7.5712 -1.9486 -0.4153 0.0000 0.0000 0.0000 7.0276 3.0765 1.1119 48.2212 66.8292 9.0746 -176.5445 88.1283 -164.3713 -15.0852 8.2287 -1.6304 0.0000 0.0000 0.0000 14.6551 26.1402 -12.9139 -9.7376 -11.7202 41.1259 -4.0309 0.2251 -2.9563 0.0000 0.0000 -0.0000
-7.5952 39.3069 1.0658 -173.0900 -52.2706 169.3230 0.0000 0.0000 0.0000 3.7951 7.7593 -9.7015 -5.2417 -4.6732 26.8847 -5.6458 0.0873 -13.6161 0.0000 0.0000 -0.0000 0.0000 0.0000 0.0000 8.8067 2.4385 0.5244 -0.5023 3.5114 21.2105 0.0000 0.0000 0.0000 -0.9426 8.4370 -7.3538 0.0000 0.0000 0.0000 -18.0759 -4.0716 2.2061 -10.8301 -45.0032 -37.9742 -179.2118 -80.4670 -173.9824 8.3247 -1.6281 -0.4374 0.0000 0.0000 0.0000 6.7168 2.9840 1.0767 44.6512 69.7884 4.0719 -178.0828 88.0198 -167.0538 -15.3798 7.7722 -1.6055 0.0000 0.0000 0.0000 15.4460 27.9847 -17.7916 -7.5884 -7.2888 47.7533 -2.8240 0.4402 4.5913 0.0000 0.0000 -0.0000
-8.1291 39.3240 0.5892 -172.2270 -52.9704 168.0060 0.0000 0.0000 0.0000 4.4786 7.2061 -7.3477 -5.3322 -4.8911 26.3637 -4.5794 0.0634 -15.4554 0.0000 0.0000 -0.0000 0.0000 0.0000 0.0000 10.5999 2.6881 0.8597 -1.0714 4.1238 20.2382 0.0000 0.0000 0.0000 -1.2258 7.3740 -5.2974 0.0000 0.0000 0.0000 -16.6825 -3.7232 2.0105 -4.9141 -47.5574 -43.6593 -178.7892 -81.2814 -175.7724 8.5041 -1.5292 -0.4404 0.0000 0.0000 0.0000 6.3942 2.9512 1.0503 40.9951 72.5976 -1.1152 -178.5579 88.0926 -167.9900 -15.4413 7.5772 -1.5871 0.0000 0.0000 0.0000 14.8761 30.4333 -21.2921 -4.6501 -4.4842 50.0377 -0.2718 0.1637 7.4229 0.0000 0.0000 -0.0000
-8.7061 39.5247 0.0479 -172.1480 -53.8558 167.8560 0.0000 0.0000 0.0000 4.6234 5.6716 -4.8531 -4.9796 -4.6523 24.2527 -4.4700 0.0429 -16.5106 0.0000 0.0000 -0.0000 0.0000 0.0000 0.0000 10.8589 3.0307 0.1553 -1.4706 4.4561 19.7797 0.0000 0.0000 0.0000 -1.1546 6.5813 -3.6253 0.0000 0.0000 0.0000 -15.5621 -3.3304 1.8336 -0.4371 -49.3883 -48.1260 -178.3764 -82.4037 -177.0661 8.3579 -1.6403 -0.4399 0.0000 0.0000 0.0000 5.9776 2.7942 0.9996 37.8460 74.7406 -5.7926 -177.8706 88.1687 -166.8143 -15.1867 7.5900 -1.5614 0.0000 0.0000 0.0000 12.4789 33.3030 -23.9890 -4.7916 -5.2495 47.3128 1.4220 -0.1271 4.7684 0.0000 0.0000 -0.0000
